<svg width="203" height="57" viewBox="0 0 203 57" fill="none" xmlns="http://www.w3.org/2000/svg">
<path d="M92.2958 28.4771C93.973 28.4771 95.2871 28.9699 96.238 29.9555C97.2063 30.941 97.6905 32.3589 97.6905 34.209V42.1194H96.3937V34.3127C96.3937 32.7911 96.0219 31.6327 95.2784 30.8373C94.5349 30.0419 93.4975 29.6443 92.1661 29.6443C90.6446 29.6443 89.4342 30.1197 88.5351 31.0707C87.6533 32.0217 87.2124 33.3012 87.2124 34.9092V42.1194H85.9156V34.3127C85.9156 32.7911 85.5438 31.6327 84.8003 30.8373C84.0568 30.0419 83.0194 29.6443 81.688 29.6443C80.1665 29.6443 78.9561 30.1197 78.057 31.0707C77.1752 32.0217 76.7343 33.3012 76.7343 34.9092V42.1194H75.4375V28.5809H76.6824V31.4857C77.132 30.5347 77.7977 29.7999 78.6795 29.2812C79.5786 28.7451 80.642 28.4771 81.8696 28.4771C83.0972 28.4771 84.1347 28.7538 84.9819 29.3071C85.8464 29.8604 86.4602 30.673 86.8233 31.7451C87.2729 30.7422 87.9732 29.9468 88.9241 29.359C89.8924 28.7711 91.0163 28.4771 92.2958 28.4771Z" fill="#1D3443"/>
<path d="M112.952 35.6614H101.307C101.341 36.7161 101.609 37.6584 102.111 38.4884C102.612 39.301 103.286 39.9321 104.134 40.3817C104.998 40.8312 105.966 41.056 107.038 41.056C107.92 41.056 108.733 40.9004 109.476 40.5892C110.237 40.2607 110.868 39.7852 111.37 39.1627L112.122 40.0186C111.534 40.7275 110.791 41.2722 109.891 41.6526C109.01 42.0329 108.05 42.2231 107.013 42.2231C105.664 42.2231 104.462 41.9292 103.407 41.3413C102.353 40.7534 101.523 39.9408 100.918 38.9034C100.33 37.8659 100.036 36.6815 100.036 35.3501C100.036 34.0361 100.312 32.8603 100.866 31.8229C101.436 30.7681 102.214 29.9468 103.2 29.359C104.186 28.7711 105.292 28.4771 106.52 28.4771C107.747 28.4771 108.845 28.7711 109.814 29.359C110.799 29.9296 111.569 30.7336 112.122 31.771C112.693 32.8084 112.978 33.9842 112.978 35.2983L112.952 35.6614ZM106.52 29.6183C105.569 29.6183 104.713 29.8345 103.952 30.2667C103.191 30.6817 102.578 31.2782 102.111 32.0563C101.661 32.8171 101.402 33.6816 101.333 34.6499H111.707C111.655 33.6816 111.396 32.8171 110.929 32.0563C110.462 31.2955 109.848 30.699 109.087 30.2667C108.327 29.8345 107.471 29.6183 106.52 29.6183Z" fill="#1D3443"/>
<path d="M127.468 22.875V42.1194H126.197V38.9293C125.661 39.984 124.909 40.7967 123.94 41.3673C122.972 41.9378 121.874 42.2231 120.647 42.2231C119.384 42.2231 118.243 41.9292 117.223 41.3413C116.203 40.7534 115.399 39.9408 114.811 38.9034C114.24 37.8659 113.955 36.6815 113.955 35.3501C113.955 34.0188 114.24 32.8344 114.811 31.7969C115.399 30.7422 116.203 29.9296 117.223 29.359C118.243 28.7711 119.384 28.4771 120.647 28.4771C121.857 28.4771 122.938 28.7624 123.888 29.333C124.857 29.9036 125.618 30.699 126.171 31.7191V22.875H127.468ZM120.724 41.056C121.762 41.056 122.687 40.814 123.499 40.3298C124.329 39.8457 124.978 39.1714 125.445 38.3068C125.929 37.4423 126.171 36.4567 126.171 35.3501C126.171 34.2435 125.929 33.258 125.445 32.3935C124.978 31.5289 124.329 30.8546 123.499 30.3705C122.687 29.8863 121.762 29.6443 120.724 29.6443C119.687 29.6443 118.753 29.8863 117.923 30.3705C117.111 30.8546 116.462 31.5289 115.978 32.3935C115.511 33.258 115.278 34.2435 115.278 35.3501C115.278 36.4567 115.511 37.4423 115.978 38.3068C116.462 39.1714 117.111 39.8457 117.923 40.3298C118.753 40.814 119.687 41.056 120.724 41.056Z" fill="#1D3443"/>
<path d="M131.379 28.5809H132.676V42.1194H131.379V28.5809ZM132.027 25.287C131.733 25.287 131.483 25.1919 131.275 25.0017C131.068 24.7943 130.964 24.5435 130.964 24.2496C130.964 23.9557 131.068 23.7049 131.275 23.4975C131.483 23.29 131.733 23.1862 132.027 23.1862C132.321 23.1862 132.572 23.29 132.779 23.4975C132.987 23.6877 133.091 23.9297 133.091 24.2237C133.091 24.5176 132.987 24.7683 132.779 24.9758C132.572 25.1833 132.321 25.287 132.027 25.287Z" fill="#1D3443"/>
<path d="M141.954 42.2231C140.64 42.2231 139.464 41.9292 138.427 41.3413C137.389 40.7534 136.577 39.9408 135.989 38.9034C135.401 37.8486 135.107 36.6642 135.107 35.3501C135.107 34.0188 135.401 32.8344 135.989 31.7969C136.577 30.7422 137.389 29.9296 138.427 29.359C139.464 28.7711 140.64 28.4771 141.954 28.4771C143.043 28.4771 144.029 28.6933 144.911 29.1255C145.81 29.5405 146.536 30.1543 147.089 30.967L146.13 31.6673C145.646 30.9929 145.04 30.4915 144.314 30.163C143.605 29.8172 142.819 29.6443 141.954 29.6443C140.899 29.6443 139.948 29.8863 139.101 30.3705C138.271 30.8373 137.614 31.503 137.13 32.3675C136.663 33.232 136.43 34.2263 136.43 35.3501C136.43 36.474 136.663 37.4682 137.13 38.3328C137.614 39.1973 138.271 39.8716 139.101 40.3558C139.948 40.8226 140.899 41.056 141.954 41.056C142.819 41.056 143.605 40.8918 144.314 40.5632C145.04 40.2174 145.646 39.7074 146.13 39.033L147.089 39.7333C146.536 40.546 145.81 41.1684 144.911 41.6007C144.029 42.0157 143.043 42.2231 141.954 42.2231Z" fill="#1D3443"/>
<path d="M150.66 31.5376C151.075 30.552 151.724 29.7999 152.606 29.2812C153.487 28.7451 154.559 28.4771 155.822 28.4771V29.748L155.51 29.7221C154.006 29.7221 152.83 30.1976 151.983 31.1485C151.136 32.0822 150.712 33.3877 150.712 35.0648V42.1194H149.415V28.5809H150.66V31.5376Z" fill="#1D3443"/>
<path d="M163.003 42.2231C161.723 42.2231 160.565 41.9292 159.527 41.3413C158.507 40.7534 157.703 39.9408 157.115 38.9034C156.527 37.8486 156.234 36.6642 156.234 35.3501C156.234 34.0361 156.527 32.8603 157.115 31.8229C157.703 30.7681 158.507 29.9468 159.527 29.359C160.565 28.7711 161.723 28.4771 163.003 28.4771C164.282 28.4771 165.432 28.7711 166.452 29.359C167.49 29.9468 168.302 30.7681 168.89 31.8229C169.478 32.8603 169.772 34.0361 169.772 35.3501C169.772 36.6642 169.478 37.8486 168.89 38.9034C168.302 39.9408 167.49 40.7534 166.452 41.3413C165.432 41.9292 164.282 42.2231 163.003 42.2231ZM163.003 41.056C164.04 41.056 164.965 40.814 165.778 40.3298C166.608 39.8457 167.256 39.1714 167.723 38.3068C168.207 37.4423 168.449 36.4567 168.449 35.3501C168.449 34.2435 168.207 33.258 167.723 32.3935C167.256 31.5289 166.608 30.8546 165.778 30.3705C164.965 29.8863 164.04 29.6443 163.003 29.6443C161.965 29.6443 161.032 29.8863 160.202 30.3705C159.389 30.8546 158.741 31.5289 158.257 32.3935C157.79 33.258 157.556 34.2435 157.556 35.3501C157.556 36.4567 157.79 37.4423 158.257 38.3068C158.741 39.1714 159.389 39.8457 160.202 40.3298C161.032 40.814 161.965 41.056 163.003 41.056Z" fill="#1D3443"/>
<path d="M175.663 42.2231C174.573 42.2231 173.536 42.0589 172.55 41.7304C171.565 41.4018 170.795 40.9869 170.242 40.4854L170.838 39.448C171.392 39.9149 172.101 40.3039 172.965 40.6151C173.847 40.9263 174.763 41.082 175.714 41.082C177.08 41.082 178.083 40.8572 178.723 40.4076C179.38 39.9581 179.709 39.3356 179.709 38.5402C179.709 37.9697 179.527 37.5201 179.164 37.1916C178.818 36.8631 178.386 36.621 177.867 36.4654C177.348 36.3098 176.631 36.1455 175.714 35.9726C174.642 35.7824 173.778 35.5749 173.121 35.3501C172.464 35.1254 171.902 34.7623 171.435 34.2608C170.968 33.7594 170.735 33.0678 170.735 32.186C170.735 31.114 171.176 30.2321 172.057 29.5405C172.957 28.8316 174.227 28.4771 175.87 28.4771C176.735 28.4771 177.59 28.5982 178.438 28.8402C179.285 29.0823 179.977 29.4022 180.513 29.7999L179.916 30.8373C179.363 30.4396 178.732 30.137 178.023 29.9295C177.314 29.7221 176.588 29.6183 175.844 29.6183C174.582 29.6183 173.631 29.8517 172.991 30.3186C172.351 30.7854 172.032 31.3992 172.032 32.16C172.032 32.7652 172.213 33.2407 172.576 33.5865C172.939 33.915 173.38 34.1657 173.899 34.3386C174.435 34.4943 175.178 34.6672 176.129 34.8574C177.184 35.0476 178.031 35.255 178.671 35.4798C179.328 35.6873 179.881 36.0331 180.331 36.5173C180.781 37.0014 181.005 37.6671 181.005 38.5143C181.005 39.6382 180.538 40.5373 179.605 41.2116C178.671 41.886 177.357 42.2231 175.663 42.2231Z" fill="#1D3443"/>
<path d="M186.492 42.2231C185.402 42.2231 184.365 42.0589 183.379 41.7304C182.394 41.4018 181.624 40.9869 181.071 40.4854L181.668 39.448C182.221 39.9149 182.93 40.3039 183.794 40.6151C184.676 40.9263 185.593 41.082 186.544 41.082C187.91 41.082 188.912 40.8572 189.552 40.4076C190.209 39.9581 190.538 39.3356 190.538 38.5402C190.538 37.9697 190.356 37.5201 189.993 37.1916C189.647 36.8631 189.215 36.621 188.696 36.4654C188.178 36.3098 187.46 36.1455 186.544 35.9726C185.472 35.7824 184.607 35.5749 183.95 35.3501C183.293 35.1254 182.731 34.7623 182.264 34.2608C181.797 33.7594 181.564 33.0678 181.564 32.186C181.564 31.114 182.005 30.2321 182.887 29.5405C183.786 28.8316 185.057 28.4771 186.699 28.4771C187.564 28.4771 188.42 28.5982 189.267 28.8402C190.114 29.0823 190.806 29.4022 191.342 29.7999L190.745 30.8373C190.192 30.4396 189.561 30.137 188.852 29.9295C188.143 29.7221 187.417 29.6183 186.673 29.6183C185.411 29.6183 184.46 29.8517 183.82 30.3186C183.181 30.7854 182.861 31.3992 182.861 32.16C182.861 32.7652 183.042 33.2407 183.405 33.5865C183.768 33.915 184.209 34.1657 184.728 34.3386C185.264 34.4943 186.008 34.6672 186.959 34.8574C188.013 35.0476 188.861 35.255 189.5 35.4798C190.157 35.6873 190.711 36.0331 191.16 36.5173C191.61 37.0014 191.835 37.6671 191.835 38.5143C191.835 39.6382 191.368 40.5373 190.434 41.2116C189.5 41.886 188.186 42.2231 186.492 42.2231Z" fill="#1D3443"/>
<path d="M78.674 10.806L83.1711 16.3933V12.5095C83.1711 11.9643 83.103 11.5896 82.9327 11.4192C82.7283 11.1467 82.3535 11.0445 81.8425 11.0445V10.806H84.8746V11.0445C84.4998 11.0786 84.2273 11.1467 84.091 11.2489C83.9547 11.3511 83.8525 11.4533 83.7844 11.6237C83.7163 11.794 83.6822 12.1006 83.6822 12.5095V20.0387H83.4437L77.2772 12.5095V18.233C77.2772 18.7441 77.4135 19.1188 77.652 19.2892C77.8905 19.4595 78.163 19.5617 78.4696 19.5617H78.674V19.8002H75.4375V19.5617C75.9485 19.5617 76.2892 19.4595 76.4936 19.2551C76.6981 19.0507 76.8003 18.71 76.8003 18.233V11.8621L76.5958 11.6237C76.3914 11.3852 76.2211 11.2148 76.0848 11.1467C75.9485 11.0786 75.7101 11.0445 75.4375 11.0104V10.7719H78.674V10.806Z" fill="#1D3443"/>
<path d="M88.1112 11.3168V14.9963H88.2815C88.8607 14.9963 89.2695 14.8259 89.5421 14.4512C89.8146 14.0764 89.9509 13.5654 90.0531 12.8499H90.3256V17.5855H90.0531C89.985 17.0745 89.8828 16.6657 89.7124 16.325C89.5421 15.9843 89.3376 15.7799 89.0992 15.6777C88.8607 15.5755 88.5541 15.5073 88.1112 15.5073V18.0625C88.1112 18.5735 88.1452 18.8801 88.1793 18.9823C88.2134 19.0846 88.3156 19.1868 88.4178 19.2549C88.52 19.323 88.7244 19.3571 88.997 19.3571H89.5421C90.3938 19.3571 91.0752 19.1527 91.5862 18.7779C92.0972 18.4032 92.472 17.7899 92.6764 17.0063H92.9149L92.5061 19.8681H84.6361V19.5615H84.9428C85.2153 19.5615 85.4197 19.5274 85.5901 19.4252C85.6923 19.3571 85.7945 19.2549 85.8626 19.1186C85.8967 19.0164 85.9308 18.7439 85.9308 18.2669V12.3389C85.9308 11.9301 85.9308 11.6916 85.8967 11.5894C85.8626 11.419 85.7604 11.3168 85.6582 11.2146C85.4879 11.0784 85.2494 11.0443 84.9428 11.0443H84.6361V10.8058H92.2676V13.4632H91.995C91.8588 12.8159 91.6884 12.3389 91.4499 12.0664C91.2114 11.7938 90.8708 11.5894 90.4619 11.4531C90.2234 11.385 89.7465 11.3168 89.0651 11.3168H88.1112Z" fill="#1D3443"/>
<path d="M101.398 13.259H101.16C101.024 12.6798 100.853 12.305 100.683 12.0325C100.513 11.7599 100.274 11.5896 99.9676 11.4533C99.7972 11.3852 99.4906 11.317 99.0818 11.317H98.4004V18.2671C98.4004 18.7441 98.4345 19.0166 98.4685 19.1188C98.5026 19.221 98.6048 19.3232 98.7752 19.4254C98.9114 19.5277 99.1158 19.5617 99.3884 19.5617H99.695V19.8002H94.9254V19.5617H95.232C95.5045 19.5617 95.709 19.5277 95.8793 19.4254C95.9815 19.3573 96.0837 19.2551 96.1518 19.1188C96.1859 19.0166 96.22 18.7441 96.22 18.2671V11.317H95.5727C94.9594 11.317 94.5165 11.4533 94.244 11.6918C93.8692 12.0666 93.5967 12.5776 93.4945 13.2249H93.256V10.7719H101.398V13.259Z" fill="#1D3443"/>
<path d="M110.154 10.6016L109.472 13.4634H109.2C109.166 12.6798 108.961 12.1006 108.62 11.7258C108.28 11.3511 107.803 11.1467 107.224 11.1467C106.61 11.1467 105.997 11.4192 105.384 11.9303C104.771 12.4413 104.26 13.2589 103.817 14.3491C103.476 15.2349 103.306 16.0867 103.306 16.9384C103.306 17.6879 103.51 18.2671 103.885 18.6759C104.26 19.0847 104.771 19.2891 105.452 19.2891C105.997 19.2891 106.474 19.1869 106.917 18.9485C107.36 18.71 107.803 18.3352 108.246 17.8242H108.552C108.007 18.6418 107.428 19.221 106.883 19.5617C106.338 19.9024 105.622 20.0727 104.805 20.0727C103.715 20.0727 102.829 19.732 102.147 19.0847C101.466 18.4374 101.159 17.5516 101.159 16.4955C101.159 15.5075 101.432 14.5536 101.943 13.6678C102.488 12.782 103.238 12.0325 104.26 11.4874C105.282 10.9423 106.27 10.6356 107.258 10.6356C107.632 10.6356 108.109 10.7038 108.655 10.8741C108.927 10.9423 109.131 11.0104 109.268 11.0104C109.506 11.0104 109.711 10.8741 109.949 10.6356H110.154V10.6016Z" fill="#1D3443"/>
<path d="M114.311 17.245H111.108L110.734 18.1308C110.597 18.4374 110.529 18.6759 110.529 18.8462C110.529 19.0847 110.631 19.2891 110.836 19.3913C110.972 19.4595 111.245 19.5276 111.722 19.5617V19.8002H108.689V19.5617C109.03 19.5276 109.269 19.3913 109.507 19.1529C109.711 18.9485 109.984 18.4715 110.291 17.7901L113.561 10.6016H113.698L116.968 17.9945C117.275 18.71 117.547 19.1529 117.752 19.3232C117.888 19.4595 118.126 19.5276 118.399 19.5617V19.8002H114.004V19.5617H114.174C114.515 19.5617 114.788 19.5276 114.924 19.4254C115.026 19.3573 115.06 19.2551 115.06 19.1188C115.06 19.0507 115.06 18.9485 115.026 18.8803C115.026 18.8462 114.958 18.6759 114.822 18.3693L114.311 17.245ZM114.072 16.768L112.709 13.6678L111.313 16.768H114.072Z" fill="#1D3443"/>
<path d="M121.363 15.7117V18.2328C121.363 18.7098 121.397 19.0164 121.465 19.1527C121.533 19.289 121.635 19.3912 121.772 19.4593C121.908 19.5274 122.214 19.5615 122.623 19.5615V19.8H117.956V19.5615C118.365 19.5615 118.671 19.5274 118.808 19.4593C118.944 19.3912 119.046 19.289 119.114 19.1527C119.182 19.0164 119.216 18.7098 119.216 18.2328V12.373C119.216 11.896 119.182 11.5894 119.114 11.4531C119.046 11.3168 118.944 11.2146 118.808 11.1465C118.671 11.0784 118.365 11.0443 117.956 11.0443V10.8058H122.18C123.271 10.8058 124.088 10.8739 124.599 11.0443C125.11 11.1806 125.519 11.4872 125.86 11.896C126.201 12.3048 126.337 12.7818 126.337 13.3269C126.337 14.0083 126.098 14.5534 125.621 14.9622C125.315 15.2348 124.872 15.4392 124.327 15.5755L126.507 18.6417C126.78 19.0505 126.984 19.289 127.12 19.3912C127.291 19.5274 127.529 19.5956 127.768 19.6297V19.8681H124.906L121.976 15.7458H121.363V15.7117ZM121.363 11.2828V15.2348H121.738C122.351 15.2348 122.828 15.1666 123.134 15.0644C123.441 14.9622 123.679 14.7578 123.85 14.4512C124.02 14.1446 124.122 13.7698 124.122 13.2928C124.122 12.6115 123.952 12.1004 123.645 11.7597C123.305 11.419 122.794 11.2828 122.078 11.2828H121.363Z" fill="#1D3443"/>
<path d="M130.562 11.3168V14.9963H130.732C131.311 14.9963 131.72 14.8259 131.992 14.4512C132.265 14.0764 132.401 13.5654 132.503 12.8499H132.776V17.5855H132.503C132.435 17.0745 132.333 16.6657 132.163 16.325C131.992 15.9843 131.788 15.7799 131.55 15.6777C131.311 15.5755 131.004 15.5073 130.562 15.5073V18.0625C130.562 18.5735 130.596 18.8801 130.63 18.9823C130.664 19.0846 130.766 19.1868 130.868 19.2549C130.97 19.323 131.175 19.3571 131.447 19.3571H131.992C132.844 19.3571 133.526 19.1527 134.037 18.7779C134.548 18.4032 134.922 17.7899 135.127 17.0063H135.365L134.956 19.8681H127.087V19.5615H127.393C127.666 19.5615 127.87 19.5274 128.04 19.4252C128.143 19.3571 128.245 19.2549 128.313 19.1186C128.347 19.0164 128.381 18.7439 128.381 18.2669V12.3389C128.381 11.9301 128.381 11.6916 128.347 11.5894C128.313 11.419 128.211 11.3168 128.109 11.2146C127.938 11.0784 127.7 11.0443 127.393 11.0443H127.087V10.8058H134.718V13.4632H134.445C134.309 12.8159 134.139 12.3389 133.9 12.0664C133.662 11.7938 133.321 11.5894 132.912 11.4531C132.674 11.385 132.197 11.3168 131.515 11.3168H130.562Z" fill="#1D3443"/>
<g clip-path="url(#clip0_12152_19468)">
<circle cx="35.5491" cy="29.1429" r="23.8187" fill="white"/>
<path d="M19.5016 13.0954C15.3973 17.1997 12.8555 22.877 12.8555 29.1377C12.8555 35.3984 15.3973 41.0757 19.5016 45.18C23.606 49.2844 29.2833 51.8261 35.5439 51.8261C41.8046 51.8261 47.4819 49.2844 51.5863 45.18C55.6906 41.0757 58.2324 35.3984 58.2324 29.1377C58.2324 22.8666 55.6906 17.1997 51.5863 13.0954C47.4819 8.99104 41.8046 6.44927 35.5439 6.44927C29.2833 6.44927 23.606 8.99104 19.5016 13.0954ZM11.7305 29.1377C11.7305 22.5645 14.3972 16.6059 18.7099 12.3037C23.0226 7.991 28.9708 5.32422 35.5544 5.32422C42.1276 5.32422 48.0861 7.991 52.3988 12.3037C56.7115 16.6164 59.3783 22.5645 59.3783 29.1481C59.3783 35.7213 56.7115 41.6799 52.3988 45.9926C48.0861 50.3052 42.138 52.972 35.5544 52.972C28.9812 52.972 23.0226 50.3052 18.7099 45.9926C14.3972 41.6695 11.7305 35.7213 11.7305 29.1377Z" fill="#950A2B"/>
<path d="M18.7319 32.1699C18.2111 32.3991 17.8569 32.5033 17.5444 32.6074L16.086 33.0554C15.7735 33.1491 15.4193 33.2637 14.8672 33.3575L15.138 34.2325C15.4089 34.1388 15.7735 34.0033 16.3152 33.8367L17.1485 33.5866V33.5971L15.7214 34.7221L15.9193 35.3576L17.6069 35.5034V35.5138L16.7423 35.7742C16.336 35.8992 15.8568 36.0242 15.6901 36.0763L16.0547 37.2639C16.5756 37.0347 16.9298 36.9305 17.2423 36.8264L18.7007 36.3784C19.0132 36.2847 19.3674 36.1701 19.9195 36.0763L19.5445 34.8575L17.4194 34.7221L19.1174 33.4408L18.7319 32.1699Z" fill="#950A2B"/>
<path d="M17.7943 37.9929C17.5131 38.1596 17.2005 38.3471 16.6797 38.5867L18.086 40.9305L18.7631 40.5243C18.6068 40.3159 18.3881 40.0242 18.2006 39.7117L17.9297 39.2638L18.7631 38.7638C19.0027 39.1596 19.1694 39.4825 19.2735 39.6701L19.9194 39.2846C19.7944 39.1075 19.5965 38.795 19.3569 38.4096L20.1486 37.9304C20.3986 38.3575 20.6694 38.8575 20.8361 39.17L21.4924 38.7742L20.1277 36.5137C19.6798 36.8574 19.3569 37.0554 19.086 37.222L17.7943 37.9929Z" fill="#950A2B"/>
<path fill-rule="evenodd" clip-rule="evenodd" d="M22.159 40.7833L22.1902 40.8249C22.4507 41.1166 22.4507 41.5333 21.7423 42.1687C20.9194 42.9083 20.5652 42.8979 20.2527 42.5542L20.2214 42.5229L22.159 40.7833ZM19.6381 42.9083C19.9297 43.2313 20.3777 43.6584 20.8464 43.7313C21.5235 43.8459 22.1382 43.4813 22.5965 43.075C23.1694 42.5646 23.3674 42.0437 23.3153 41.4812C23.2736 41.0437 23.0965 40.6999 22.6486 40.1999L21.8777 39.3457C21.5027 39.7728 21.2319 40.0228 20.9923 40.2416L19.8464 41.2624C19.6068 41.4812 19.3255 41.7312 18.8672 42.0541L19.6381 42.9083Z" fill="#950A2B"/>
<path d="M24.5756 42.1699C24.2944 42.6595 24.0652 42.9616 23.8777 43.2116L22.961 44.4304C22.763 44.6909 22.5443 44.9825 22.1484 45.3888L23.211 46.1909C23.4922 45.7013 23.7214 45.3992 23.9089 45.1492L24.8256 43.9304C25.0236 43.67 25.2423 43.3783 25.6382 42.972L24.5756 42.1699Z" fill="#950A2B"/>
<path d="M28.951 45.0021C28.7531 44.7729 28.4823 44.575 28.2218 44.4396C27.0655 43.825 25.8467 44.3458 25.2946 45.3667C24.7321 46.4188 25.055 47.5126 26.0551 48.0543C26.5655 48.3252 27.0551 48.3148 27.5551 48.2002L27.4406 47.6064C27.1489 47.6793 26.8468 47.6376 26.6384 47.5231C25.9926 47.1793 26.1697 46.4501 26.503 45.8042C26.8155 45.2209 27.2843 44.7521 27.826 45.0438C28.1906 45.2417 28.3364 45.5959 28.3885 46.0751L28.951 45.0021Z" fill="#950A2B"/>
<path fill-rule="evenodd" clip-rule="evenodd" d="M29.8985 47.9415C30.1589 47.5457 30.3048 47.2957 30.4923 46.9623H30.5027C30.4923 47.1811 30.4819 47.5561 30.4923 48.0978L29.8985 47.9415ZM30.3569 45.3789L30.3464 45.7331C30.2735 45.8581 30.1902 45.9831 30.0652 46.1706L28.836 48.0769C28.586 48.4728 28.388 48.7645 28.2109 48.9936L29.1172 49.2332C29.1797 49.0978 29.2839 48.879 29.4714 48.6186L30.461 48.879C30.4819 49.2124 30.4714 49.4624 30.461 49.5874L31.7632 49.9416C31.7215 49.577 31.6902 49.2228 31.6694 48.5665L31.5965 46.4831C31.5861 46.2435 31.5861 45.9414 31.6069 45.7227L30.3569 45.3789Z" fill="#950A2B"/>
<path d="M33.3672 46.0645C33.3984 46.627 33.3672 47.002 33.3464 47.3249L33.2422 48.8458C33.2214 49.1687 33.1901 49.5438 33.0859 50.0959L35.8048 50.2834L35.8569 49.4917C35.5339 49.5125 35.2006 49.5125 34.9193 49.4917L34.3985 49.4604C34.4089 49.2938 34.4089 49.1167 34.4193 48.8667L34.5235 47.3978C34.5443 47.0749 34.5756 46.6999 34.6797 46.1478L33.3672 46.0645Z" fill="#950A2B"/>
<path d="M41.7615 45.1381C41.4698 45.1068 41.1261 45.1589 40.8448 45.2422C39.5843 45.6068 39.0635 46.8256 39.3864 47.9403C39.7093 49.0862 40.7094 49.6487 41.7928 49.3362C42.3449 49.1799 42.699 48.8257 42.9699 48.3986L42.4699 48.0444C42.3032 48.3049 42.0636 48.482 41.8344 48.5445C41.1365 48.7424 40.751 48.0965 40.5427 47.3986C40.3552 46.7631 40.3656 46.0964 40.9594 45.9298C41.3552 45.8152 41.7094 45.9714 42.0844 46.284L41.7615 45.1381Z" fill="#950A2B"/>
<path d="M43.7514 47.1902C43.8972 47.4819 44.0639 47.8153 44.2618 48.3465L46.6994 47.1069L46.3452 46.409C46.1265 46.5548 45.8244 46.7423 45.491 46.909L45.0222 47.1486L44.5847 46.284C44.991 46.0756 45.3243 45.9194 45.5223 45.836L45.1785 45.1693C44.991 45.2735 44.6681 45.461 44.2618 45.6694L43.8451 44.8464C44.2826 44.6276 44.8035 44.3881 45.1264 44.2422L44.7722 43.5547L42.418 44.7527C42.7305 45.2214 42.9076 45.5548 43.0534 45.8464L43.7514 47.1902Z" fill="#950A2B"/>
<path d="M45.168 43.2937C45.5847 43.6687 45.8347 43.95 46.043 44.2L47.043 45.3563C47.2514 45.5959 47.5014 45.8771 47.8139 46.3459L48.5535 45.7001C48.1368 45.325 47.8868 45.0438 47.6785 44.7938L47.1681 44.2104L47.1785 44.2C47.7202 44.3667 48.4077 44.5646 49.5431 44.8354L50.2619 44.2104C49.8452 43.8354 49.5952 43.5541 49.3869 43.3041L48.3868 42.1478C48.1785 41.9082 47.9285 41.627 47.616 41.1582L46.9076 41.7728C47.3243 42.1478 47.5743 42.4291 47.7827 42.6791L48.3868 43.377L48.3764 43.3875C47.5535 43.127 46.7305 42.8874 45.8972 42.6478L45.168 43.2937Z" fill="#950A2B"/>
<path d="M47.9805 40.825C48.0742 40.877 48.168 40.95 48.293 41.0437C48.418 41.1375 48.5117 41.2104 48.5847 41.2937C48.6576 41.1791 48.7513 41.0437 48.8763 40.877L49.0847 40.6166L49.9493 41.2937C50.5431 41.7625 51.0848 42.1792 51.6265 42.7209L52.4702 41.6375C51.8244 41.2416 51.2827 40.825 50.6785 40.3562L49.8139 39.6791L50.0222 39.4187C50.1576 39.252 50.2618 39.127 50.3556 39.0332C50.2618 38.9811 50.1681 38.9082 50.0431 38.8145C49.918 38.7207 49.8243 38.6478 49.7514 38.5645L47.9805 40.825Z" fill="#950A2B"/>
<path fill-rule="evenodd" clip-rule="evenodd" d="M51.2618 37.3674C51.2722 37.3257 51.2826 37.2945 51.3139 37.232C51.4597 36.9403 51.7305 36.8361 52.0014 36.9715C52.2931 37.1174 52.3243 37.3674 52.1681 37.6695C52.1264 37.7424 52.0951 37.7945 52.0951 37.7945L51.2618 37.3674ZM50.0117 38.1382C50.543 38.3362 50.8763 38.5028 51.168 38.6487L52.5327 39.3466C52.8243 39.4925 53.1577 39.6591 53.6265 39.9821L54.2202 38.8258C54.0744 38.7841 53.9077 38.7112 53.7098 38.607L52.7722 38.1382L52.8452 38.0028C53.2306 38.0445 53.8244 38.1174 54.5119 38.2216L55.1682 36.9299C54.8869 36.9611 54.3973 36.9194 53.1577 36.8778C53.1681 36.5028 52.9702 36.0236 52.5222 35.784C51.9701 35.5027 51.2826 35.6694 50.9076 36.3778L50.0117 38.1382Z" fill="#950A2B"/>
<path d="M54.3894 35.3575C54.7019 35.4305 55.0665 35.5138 55.5978 35.7117L56.2124 33.045L55.4416 32.8679C55.4103 33.1179 55.3582 33.4825 55.2853 33.8471L55.1707 34.3575L54.2228 34.1388C54.3269 33.6908 54.4207 33.3366 54.4832 33.1283L53.754 32.9616C53.7123 33.17 53.6498 33.5346 53.5456 33.9825L52.6394 33.7742C52.754 33.295 52.9102 32.7533 53.004 32.4095L52.2539 32.2324L51.6602 34.8054C52.2227 34.8679 52.5873 34.9513 52.8998 35.0242L54.3894 35.3575Z" fill="#950A2B"/>
<path d="M20.4805 29.1373C20.4805 20.8245 27.2307 14.0742 35.554 14.0742C43.8773 14.0742 50.6275 20.8245 50.6275 29.1477C50.6275 37.471 43.8773 44.2213 35.554 44.2213C27.2307 44.2109 20.4805 37.4606 20.4805 29.1373Z" fill="#950A2B"/>
<path d="M24.939 18.5327C22.2201 21.2516 20.543 25.0017 20.543 29.1478C20.543 33.2938 22.2201 37.0439 24.939 39.7628C27.6578 42.4816 31.408 44.1588 35.554 44.1588C39.7 44.1588 43.4502 42.4816 46.169 39.7628C48.8879 37.0439 50.565 33.2938 50.565 29.1478C50.565 25.0017 48.8879 21.2516 46.169 18.5327C43.4502 15.8139 39.7 14.1367 35.554 14.1367C31.408 14.1367 27.6578 15.8139 24.939 18.5327ZM20.418 29.1373C20.418 24.9601 22.116 21.1787 24.8452 18.439C27.5849 15.6993 31.3663 14.0117 35.5436 14.0117C39.7208 14.0117 43.5022 15.7097 46.2419 18.439C48.9816 21.1787 50.6692 24.9601 50.6692 29.1373C50.6692 33.3146 48.9712 37.096 46.2419 39.8357C43.5022 42.5754 39.7208 44.263 35.5436 44.263C31.3663 44.263 27.5849 42.565 24.8452 39.8357C22.116 37.1064 20.418 33.325 20.418 29.1373Z" fill="#950A2B"/>
<path d="M39.6895 16.1784C38.3978 15.7721 36.9811 15.543 35.5539 15.543C33.8664 15.543 32.2517 15.8451 30.7621 16.4076V24.4704H22.7722C22.2409 25.9288 21.9492 27.5018 21.9492 29.1373C21.9492 30.5957 22.1784 32.0541 22.6055 33.3666H30.7621L30.7829 41.919C32.2726 42.4816 33.8664 42.7316 35.5539 42.7316C36.9915 42.7316 38.3666 42.5128 39.6687 42.0961V33.3562L48.4816 33.3666C48.9191 32.0332 49.1587 30.6061 49.1587 29.1373C49.1587 27.4914 48.867 25.9392 48.3357 24.4808H39.6687L39.6895 16.1784Z" fill="#E3964C"/>
<path d="M37.6673 15.6367C38.3653 15.7409 39.0528 15.9076 39.7091 16.1159L39.7611 16.1263L39.7403 24.4288H48.3865L48.4073 24.4704C48.6782 25.1996 48.8865 25.9601 49.0219 26.7413C49.1678 27.5226 49.2407 28.3247 49.2407 29.1477C49.2407 29.8769 49.1782 30.6061 49.074 31.304C48.9594 32.0228 48.7928 32.7208 48.5636 33.3979L48.5532 33.4395L39.7611 33.4291V42.1482L39.7091 42.1586C39.0528 42.367 38.3653 42.5232 37.6673 42.6378C36.9798 42.742 36.2818 42.7941 35.5735 42.7941C34.7297 42.7941 33.9067 42.7316 33.1046 42.5962C32.3025 42.4607 31.5316 42.2524 30.7816 41.9711L30.7399 41.9503L30.7191 33.4187H22.5729L22.5625 33.3666C22.3438 32.6999 22.1875 32.002 22.0729 31.2832C21.9583 30.5748 21.9062 29.8456 21.9062 29.1164C21.9062 28.3039 21.9792 27.5018 22.1146 26.7309C22.25 25.9392 22.4584 25.1684 22.7396 24.4288L22.7605 24.3871H30.7295V16.3451L30.7712 16.3243C31.5316 16.043 32.3233 15.8242 33.1359 15.668C33.9276 15.5221 34.7505 15.4492 35.5839 15.4492C36.261 15.4701 36.9694 15.5326 37.6673 15.6367ZM39.6153 16.2201C38.9799 16.0222 38.3236 15.8659 37.6361 15.7617C36.9485 15.6576 36.2506 15.6055 35.5422 15.6055C34.7089 15.6055 33.9067 15.6784 33.115 15.8242C32.3233 15.9701 31.5525 16.1784 30.8233 16.4493V24.5329H22.8125C22.5521 25.2517 22.3542 26.0017 22.2188 26.7726C22.0833 27.5435 22.0104 28.3352 22.0104 29.1373C22.0104 29.8561 22.0625 30.5853 22.1771 31.2832C22.2813 31.9811 22.4375 32.6583 22.6459 33.2937H30.8233L30.8441 41.867C31.5733 42.1378 32.3233 42.3357 33.0942 42.4607C33.8859 42.5962 34.6984 42.6587 35.5422 42.6587C36.2506 42.6587 36.9381 42.6066 37.6152 42.5024C38.2923 42.3982 38.9486 42.242 39.5841 42.0441V33.2833L48.4177 33.2937C48.6261 32.6374 48.7928 31.9603 48.9074 31.2624C49.0219 30.5644 49.074 29.8561 49.074 29.1269C49.074 28.3039 49.0011 27.5122 48.8657 26.7413C48.7303 25.9913 48.5323 25.2517 48.2719 24.5433H39.5841L39.6153 16.2201Z" fill="#EBB682"/>
<path d="M17.5938 18.4507C18.0834 18.7319 18.3854 18.9611 18.6459 19.159L19.8751 20.0861C20.1355 20.2841 20.4376 20.5132 20.8439 20.9091L21.396 20.1695C21.1564 20.0028 20.823 19.784 20.3751 19.4403L19.6772 18.909L19.6876 18.8986L21.4481 19.3986L21.8543 18.8569L20.9689 17.3881L20.9793 17.3777L21.7085 17.9298C22.0523 18.1902 22.4377 18.5027 22.5835 18.6069L23.3336 17.6069C22.844 17.3256 22.5419 17.0964 22.2814 16.8985L21.0522 15.9714C20.7918 15.7735 20.4897 15.5443 20.0834 15.1484L19.3126 16.1797L20.4689 17.9923L18.4167 17.3673L17.5938 18.4507Z" fill="#950A2B"/>
<path d="M23.3647 15.9591C23.5626 16.2196 23.7918 16.5217 24.073 17.0113L26.2814 15.3549L25.8023 14.7195C25.6147 14.8966 25.3439 15.1466 25.0418 15.3654L24.6147 15.6883L24.0209 14.907C24.3855 14.6258 24.698 14.4174 24.8751 14.2924L24.4168 13.6882C24.2501 13.8236 23.9688 14.0632 23.5938 14.3445L23.0313 13.5945C23.4272 13.2924 23.9063 12.9694 24.198 12.7715L23.7293 12.1465L21.625 13.7611C22.0208 14.1674 22.25 14.4695 22.448 14.7299L23.3647 15.9591Z" fill="#950A2B"/>
<path fill-rule="evenodd" clip-rule="evenodd" d="M26.9193 11.2726L26.9714 11.2517C27.336 11.0955 27.7319 11.2309 28.1069 12.1163C28.5444 13.1372 28.4194 13.481 27.9923 13.6581L27.9506 13.6685L26.9193 11.2726ZM28.1173 14.3769C28.5131 14.2102 29.0757 13.9185 29.3048 13.4914C29.6382 12.8768 29.4923 12.1788 29.2528 11.6059C28.9507 10.8871 28.5236 10.5329 27.961 10.3975C27.5235 10.2934 27.1381 10.3559 26.5235 10.6163L25.4609 11.0642C25.7422 11.5538 25.888 11.908 26.0235 12.2101L26.6277 13.6268C26.7527 13.9289 26.8985 14.2727 27.0652 14.8248L28.1173 14.3769Z" fill="#950A2B"/>
<path d="M30.2539 9.28321C30.4414 9.8249 30.5143 10.1895 30.5873 10.5124L30.9102 12.0229C30.9831 12.3458 31.056 12.7104 31.1081 13.273L32.4207 12.9917C32.2332 12.45 32.1602 12.0854 32.0873 11.7625L31.7644 10.252C31.6915 9.92907 31.6185 9.56448 31.5665 9.00195L30.2539 9.28321Z" fill="#950A2B"/>
<path d="M36.5756 8.75196C36.2944 8.64779 35.961 8.5957 35.6589 8.5957C34.336 8.5957 33.4922 9.63741 33.4922 10.8041C33.4922 12.0021 34.2943 12.8355 35.4402 12.8355C36.0131 12.8355 36.4611 12.5959 36.8361 12.2521L36.4506 11.7729C36.2215 11.9813 35.9402 12.0854 35.7006 12.0854C34.961 12.0854 34.7735 11.3562 34.7735 10.6166C34.7735 9.94993 34.9714 9.30407 35.586 9.30407C36.0027 9.30407 36.3048 9.55408 36.5756 9.96034V8.75196Z" fill="#950A2B"/>
<path fill-rule="evenodd" clip-rule="evenodd" d="M39.6993 9.88611C39.741 9.88611 39.7826 9.89653 39.8451 9.90695C40.1681 9.99028 40.3347 10.2299 40.2514 10.532C40.1681 10.8445 39.9389 10.9382 39.5951 10.8549C39.5118 10.8341 39.4597 10.8132 39.4597 10.8132L39.6993 9.88611ZM38.6576 8.83398C38.5847 9.39651 38.5013 9.76111 38.418 10.084L38.043 11.5737C37.9596 11.8862 37.8763 12.2508 37.668 12.7925L38.9389 13.105C38.9493 12.9592 38.9805 12.7716 39.0326 12.5529L39.2826 11.5424L39.4285 11.5841C39.4701 11.9695 39.543 12.5737 39.5951 13.2717L41.0118 13.6258C40.9181 13.355 40.8452 12.8654 40.616 11.6362C40.991 11.5633 41.4181 11.2612 41.5431 10.7611C41.6994 10.1465 41.3764 9.5111 40.5952 9.31317L38.6576 8.83398Z" fill="#950A2B"/>
<path fill-rule="evenodd" clip-rule="evenodd" d="M44.952 11.7627C45.1708 11.8773 45.1083 12.3877 44.6707 13.169C44.2332 13.9503 43.8478 14.2732 43.629 14.1482C43.4103 14.0336 43.4728 13.5232 43.9103 12.7419C44.3478 11.9606 44.7437 11.6377 44.952 11.7627ZM43.2644 14.8045C43.9936 15.2108 45.1499 15.0545 45.8374 13.8149C46.525 12.5648 46.0458 11.5023 45.3166 11.1064C44.5874 10.7002 43.4311 10.8564 42.7436 12.0961C42.0456 13.3461 42.5352 14.4087 43.2644 14.8045Z" fill="#950A2B"/>
<path d="M45.8477 16.0841C46.0352 16.48 46.306 16.8446 46.6289 17.1362C47.4519 17.8759 48.2957 17.7404 48.7749 17.2092C49.2332 16.6987 49.1603 16.2925 48.9207 15.6883C48.7332 15.2299 48.5248 14.8966 48.7019 14.6986C48.8269 14.5632 49.0353 14.5424 49.2332 14.7299C49.3478 14.8341 49.5353 15.0945 49.6811 15.6987L50.3166 14.9903C50.1603 14.6882 49.9312 14.407 49.7228 14.2195C48.9936 13.5632 48.1186 13.6361 47.6394 14.1674C47.2644 14.5841 47.2435 14.9799 47.5144 15.6049C47.7436 16.1466 47.8582 16.4279 47.6811 16.6154C47.5352 16.7716 47.306 16.7196 47.0769 16.5112C46.7331 16.1987 46.6394 15.7091 46.5664 15.2716L45.8477 16.0841Z" fill="#950A2B"/>
<path d="M48.6992 18.8881C48.793 19.3152 48.9596 19.7423 49.1992 20.0965C49.8139 21.0132 50.6681 21.0861 51.2618 20.6799C51.8348 20.2944 51.866 19.8778 51.7723 19.2423C51.6993 18.7423 51.5743 18.3777 51.8035 18.2319C51.9598 18.1277 52.1681 18.1589 52.314 18.3881C52.3973 18.5131 52.5223 18.8152 52.5119 19.4298L53.3036 18.8986C53.2307 18.5756 53.0744 18.2319 52.9181 18.0131C52.3765 17.2006 51.5118 17.0547 50.9076 17.461C50.4493 17.7735 50.3243 18.1589 50.4389 18.8256C50.5326 19.3986 50.5743 19.7007 50.3555 19.8465C50.1784 19.9715 49.9597 19.8569 49.793 19.5965C49.5326 19.2111 49.5638 18.711 49.5951 18.2735L48.6992 18.8881Z" fill="#950A2B"/>
</g>
<defs>
<clipPath id="clip0_12152_19468">
<rect width="47.6374" height="47.6374" fill="white" transform="translate(11.7305 5.32422)"/>
</clipPath>
</defs>
</svg>
